<?xml version="1.0" encoding="UTF-8"?>
<svg width="200" height="200" viewBox="0 0 200 200" fill="none" xmlns="http://www.w3.org/2000/svg">
  <circle cx="100" cy="100" r="100" fill="#9370DB"/>
  <path d="M40 60H80C90 60 100 70 100 80V120C100 130 90 140 80 140H40V60Z" fill="white"/>
  <path d="M60 80V120H80C85 120 85 115 85 110V90C85 85 85 80 80 80H60Z" fill="#9370DB"/>
  <path d="M110 60H130V120H155V140H110V60Z" fill="white"/>
  <path d="M160 95C160 75 180 60 180 60V130C180 130 160 115 160 95Z" fill="white"/>
</svg> 