<?xml version="1.0" encoding="UTF-8"?>
<svg width="1503" height="1504" viewBox="0 0 1503 1504" fill="none" xmlns="http://www.w3.org/2000/svg">
  <rect x="287" y="258" width="928" height="844" fill="white"/>
  <path d="M1502.5 752C1502.5 1166.77 1166.27 1503 751.5 1503C336.734 1503 0.5 1166.77 0.5 752C0.5 337.234 336.734 1 751.5 1C1166.27 1 1502.5 337.234 1502.5 752Z" fill="#E84142" stroke="white"/>
  <path d="M538.717 790.085L751.612 420.577L964.506 790.085H538.717Z" fill="white"/>
  <path d="M538.717 868.006H964.506L751.612 1237.51L538.717 868.006Z" fill="white"/>
  <path d="M325.823 829.045L432.271 651.125H645.165L325.823 1183.58V829.045Z" fill="white"/>
  <path d="M1177.4 829.045L1070.95 651.125H858.058L1177.4 1183.58V829.045Z" fill="white"/>
</svg> 